HIERARCHY
ROOT joint_Root
{
	OFFSET 0.0 0.0 0.0
	CHANNELS 6 Xposition Yposition Zposition Zrotation Xrotation Yrotation 
	JOINT Hips
	{
		OFFSET -17.1583 93.1646 452.98
		CHANNELS 6 Xposition Yposition Zposition Zrotation Xrotation Yrotation 
		JOINT Spine
		{
			OFFSET 15.7357 0.0 0.0
			CHANNELS 6 Xposition Yposition Zposition Zrotation Xrotation Yrotation 
			JOINT Chest
			{
				OFFSET 8.98455 -0.406207 0.0
				CHANNELS 6 Xposition Yposition Zposition Zrotation Xrotation Yrotation 
				JOINT Neck
				{
					OFFSET 16.3773 0.0 0.0
					CHANNELS 6 Xposition Yposition Zposition Zrotation Xrotation Yrotation 
					JOINT Head
					{
						OFFSET 6.45672 0.0 0.0
						CHANNELS 6 Xposition Yposition Zposition Zrotation Xrotation Yrotation 
						End Site
						{
							OFFSET 0.0 0.0 0.0
						}
					}
				}
				JOINT Shoulder_L
				{
					OFFSET 12.9942 -0.242716 4.98039
					CHANNELS 6 Xposition Yposition Zposition Zrotation Xrotation Yrotation 
					JOINT UpperArm_L
					{
						OFFSET 5.34809 0.0 0.0
						CHANNELS 6 Xposition Yposition Zposition Zrotation Xrotation Yrotation 
						JOINT LowerArm_L
						{
							OFFSET 24.3286 1.87007e-05 0.0
							CHANNELS 6 Xposition Yposition Zposition Zrotation Xrotation Yrotation 
							JOINT Hand_L
							{
								OFFSET 22.2916 0.0 0.0
								CHANNELS 6 Xposition Yposition Zposition Zrotation Xrotation Yrotation 
								End Site
								{
									OFFSET 0.0 0.0 0.0
								}
							}
						}
					}
				}
				JOINT Shoulder_R
				{
					OFFSET 12.9945 -0.242716 -4.98039
					CHANNELS 6 Xposition Yposition Zposition Zrotation Xrotation Yrotation 
					JOINT UpperArm_R
					{
						OFFSET -5.34813 0.0 0.0
						CHANNELS 6 Xposition Yposition Zposition Zrotation Xrotation Yrotation 
						JOINT LowerArm_R
						{
							OFFSET -24.3289 0.000322201 0.0
							CHANNELS 6 Xposition Yposition Zposition Zrotation Xrotation Yrotation 
							JOINT Hand_R
							{
								OFFSET -22.2915 -0.000108084 0.0
								CHANNELS 6 Xposition Yposition Zposition Zrotation Xrotation Yrotation 
								End Site
								{
									OFFSET 0.0 0.0 0.0
								}
							}
						}
					}
				}
			}
		}
		JOINT UpperLeg_L
		{
			OFFSET -2.19248 -6.46944 0.0
			CHANNELS 6 Xposition Yposition Zposition Zrotation Xrotation Yrotation 
			JOINT LowerLeg_L
			{
				OFFSET 39.0811 0.0 -1.23785e-05
				CHANNELS 6 Xposition Yposition Zposition Zrotation Xrotation Yrotation 
				JOINT Foot_L
				{
					OFFSET 40.9854 0.0 -1.26872e-05
					CHANNELS 6 Xposition Yposition Zposition Zrotation Xrotation Yrotation 
					JOINT Toes_L
					{
						OFFSET 11.7543 0.0 0.0
						CHANNELS 6 Xposition Yposition Zposition Zrotation Xrotation Yrotation 
						End Site
						{
							OFFSET 0.0 0.0 0.0
						}
					}
				}
			}
		}
		JOINT UpperLeg_R
		{
			OFFSET -2.19251 6.46944 0.0
			CHANNELS 6 Xposition Yposition Zposition Zrotation Xrotation Yrotation 
			JOINT LowerLeg_R
			{
				OFFSET -39.0811 -0.00228153 -0.0401928
				CHANNELS 6 Xposition Yposition Zposition Zrotation Xrotation Yrotation 
				JOINT Foot_R
				{
					OFFSET -40.9854 0.0 0.0
					CHANNELS 6 Xposition Yposition Zposition Zrotation Xrotation Yrotation 
					JOINT Toes_R
					{
						OFFSET -11.7543 0.0 0.0
						CHANNELS 6 Xposition Yposition Zposition Zrotation Xrotation Yrotation 
						End Site
						{
							OFFSET 0.0 0.0 0.0
						}
					}
				}
			}
		}
	}
}
MOTION
Frames:	4
Frame Time:	0.0333333
0.000000 0.000000 0.000000 0.000000 0.000000 -0.000000 -4.511380 91.633300 -0.328584 83.727400 2.047770 4.530470 15.735700 0.000005 -0.000001 58.438500 86.979100 -55.903000 8.984550 -0.406207 -0.000000 -2.539780 -3.389150 4.997050 16.377300 -0.000001 -0.000001 10.219500 2.357340 1.997040 6.456720 -0.000001 -0.000000 5.482890 4.307650 9.126240 12.994200 -0.242716 4.980390 -92.169500 5.877680 -69.699000 5.348090 -0.000007 -0.000001 -68.877100 -21.564500 0.578710 24.328600 0.000019 0.000005 44.884500 -36.691500 -120.960000 22.291600 -0.000001 0.000005 63.784400 4.564650 15.520500 12.994500 -0.242716 -4.980390 87.816500 5.975690 -69.885100 -5.348130 -0.000001 -0.000004 -63.628200 -0.763532 -1.657890 -24.328900 0.000322 -0.000009 24.116200 -22.255300 -130.231000 -22.291500 -0.000108 -0.000004 62.036900 5.681360 -20.303600 -2.192480 -6.469440 -0.000000 -170.558000 6.195760 -4.326820 39.081100 -0.000007 -0.000012 0.404294 -0.714054 29.519300 40.985400 -0.000006 -0.000013 -0.093415 9.188220 -77.374200 11.754300 -0.000000 0.000003 0.000703 0.154811 -10.298300 -2.192510 6.469440 -0.000001 -168.783000 8.431620 -176.058000 -39.081100 -0.002282 -0.040193 0.137716 -0.487857 15.401000 -40.985400 0.000008 0.000006 6.214600 -0.217219 -71.362900 -11.754300 -0.000006 -0.000006 -0.010451 0.274642 -5.414500
0.000000 0.000000 0.000000 0.000000 0.000000 -0.000000 -4.559770 91.620800 -0.326726 83.701600 2.049800 4.570320 15.735700 0.000005 -0.000001 58.035100 86.966200 -55.492800 8.984550 -0.406207 -0.000000 -2.538930 -3.439580 5.009530 16.377300 -0.000001 -0.000001 10.285300 2.374380 1.958530 6.456720 -0.000001 -0.000000 5.647720 4.320770 9.213830 12.994200 -0.242716 4.980390 -92.156800 5.865490 -69.769500 5.348090 -0.000007 -0.000001 -69.968900 -23.365400 0.116652 24.328600 0.000019 0.000005 35.413800 -31.120600 -126.013000 22.291600 -0.000001 0.000005 61.770500 4.407970 18.097700 12.994500 -0.242716 -4.980390 87.799300 6.028900 -69.903200 -5.348130 -0.000001 -0.000004 -64.458400 -1.978070 -2.131900 -24.328900 0.000322 -0.000009 18.510800 -17.210300 -131.468000 -22.291500 -0.000108 -0.000004 62.420100 5.660340 -16.104300 -2.192480 -6.469440 -0.000000 -170.511000 6.191310 -4.304160 39.081100 -0.000007 -0.000012 0.409430 -0.721751 29.566100 40.985400 -0.000006 -0.000013 -0.014281 9.155980 -77.458600 11.754300 -0.000000 0.000003 0.000633 0.156187 -10.242400 -2.192510 6.469440 -0.000001 -168.689000 8.278580 -176.057000 -39.081100 -0.002282 -0.040193 0.138965 -0.490963 15.443800 -40.985400 0.000008 0.000006 6.222520 -0.419655 -71.333300 -11.754300 -0.000006 -0.000006 -0.010545 0.275329 -5.386360
0.000000 0.000000 0.000000 0.000000 0.000000 -0.000000 -4.613490 91.617900 -0.338055 83.678900 1.993180 4.559090 15.735700 0.000005 -0.000001 57.830100 86.967700 -55.282100 8.984550 -0.406207 -0.000000 -2.552450 -3.457180 5.020210 16.377300 -0.000001 -0.000001 10.395500 2.325540 2.048570 6.456720 -0.000001 -0.000000 5.629730 4.303600 9.128210 12.994200 -0.242716 4.980390 -92.188400 5.921350 -69.674600 5.348090 -0.000007 -0.000001 -70.687400 -25.019000 -0.390502 24.328600 0.000019 0.000005 24.172400 -23.187600 -131.259000 22.291600 -0.000001 0.000005 61.100500 4.247630 20.592500 12.994500 -0.242716 -4.980390 87.801000 6.029820 -69.920300 -5.348130 -0.000001 -0.000004 -65.364800 -3.245990 -2.604780 -24.328900 0.000322 -0.000009 12.368900 -11.816200 -133.039000 -22.291500 -0.000108 -0.000004 62.262300 5.564530 -9.411140 -2.192480 -6.469440 -0.000000 -170.433000 6.141090 -4.325390 39.081100 -0.000007 -0.000012 0.408387 -0.719365 29.584800 40.985400 -0.000006 -0.000013 -0.085707 9.194380 -77.467400 11.754300 -0.000000 0.000003 0.000535 0.158073 -10.165900 -2.192510 6.469440 -0.000001 -168.631000 8.300930 -176.031000 -39.081100 -0.002282 -0.040193 0.139453 -0.494746 15.383800 -40.985400 0.000008 0.000006 6.283220 -0.330010 -71.326600 -11.754300 -0.000006 -0.000006 -0.010145 0.272384 -5.506870
0.000000 0.000000 0.000000 0.000000 0.000000 -0.000000 -4.666720 91.617000 -0.340852 83.687700 1.943170 4.531280 15.735700 0.000005 -0.000001 57.973000 86.988700 -55.445300 8.984550 -0.406207 -0.000000 -2.581440 -3.420940 4.979500 16.377300 -0.000001 -0.000001 10.425200 2.330440 2.053730 6.456720 -0.000001 -0.000000 5.545480 4.254030 9.252330 12.994200 -0.242716 4.980390 -92.188300 5.885880 -69.563800 5.348090 -0.000007 -0.000001 -71.110000 -26.046600 -0.746770 24.328600 0.000019 0.000005 15.229900 -15.465300 -134.405000 22.291600 -0.000001 0.000005 62.700800 4.129830 22.352100 12.994500 -0.242716 -4.980390 87.803900 6.001790 -69.859400 -5.348130 -0.000001 -0.000004 -66.039600 -4.514820 -2.933660 -24.328900 0.000322 -0.000009 4.660670 -4.651260 -134.846000 -22.291500 -0.000108 -0.000004 62.402300 5.440110 -4.297510 -2.192480 -6.469440 -0.000000 -170.386000 6.093630 -4.355270 39.081100 -0.000007 -0.000012 0.402409 -0.708702 29.589400 40.985400 -0.000006 -0.000013 -0.249865 9.246010 -77.428300 11.754300 -0.000000 0.000003 0.000517 0.158422 -10.151700 -2.192510 6.469440 -0.000001 -168.625000 8.358040 -176.052000 -39.081100 -0.002282 -0.040193 0.138702 -0.492321 15.374700 -40.985400 0.000008 0.000006 6.329670 -0.222161 -71.322100 -11.754300 -0.000006 -0.000006 -0.010462 0.274728 -5.410970
